<svg width="20" height="20" viewBox="0 0 20 20" fill="none" xmlns="http://www.w3.org/2000/svg">
<g clip-path="url(#clip0_209_1468)">
<path d="M10 20C15.5228 20 20 15.5228 20 10C20 4.47715 15.5228 0 10 0C4.47715 0 0 4.47715 0 10C0 15.5228 4.47715 20 10 20Z" fill="#5169CD"/>
<path d="M20 10C20 15.5227 15.5227 20 10 20C9.73733 20 9.47477 19.9898 9.21289 19.9694C14.3674 19.5678 18.4254 15.2575 18.4254 10C18.4254 4.74246 14.3674 0.432188 9.21289 0.0305859C9.47477 0.0102485 9.73733 4.55838e-05 10 0C15.5227 0 20 4.47727 20 10Z" fill="#3351C5"/>
<path d="M10.0003 18.7415C14.8281 18.7415 18.7418 14.8278 18.7418 10C18.7418 5.1722 14.8281 1.25848 10.0003 1.25848C5.1725 1.25848 1.25879 5.1722 1.25879 10C1.25879 14.8278 5.1725 18.7415 10.0003 18.7415Z" fill="#BEC7EC"/>
<path d="M18.7413 10C18.7413 14.8277 14.8275 18.7415 9.99984 18.7415C9.70883 18.7415 9.42117 18.7273 9.1377 18.6993C13.5604 18.2664 17.0166 14.5367 17.0166 10C17.0166 5.46335 13.5604 1.7337 9.1377 1.30073C9.42421 1.27254 9.71194 1.25846 9.99984 1.25855C14.8275 1.25858 18.7413 5.17233 18.7413 10Z" fill="#A3AFE4"/>
<path d="M10.0001 17.3331C14.05 17.3331 17.3332 14.05 17.3332 10C17.3332 5.95007 14.05 2.66693 10.0001 2.66693C5.95013 2.66693 2.66699 5.95007 2.66699 10C2.66699 14.05 5.95013 17.3331 10.0001 17.3331Z" fill="#213993"/>
<path d="M10.0015 4.45337L6.56831 10.1145C6.55621 10.1345 6.54822 10.1566 6.54483 10.1796C6.54143 10.2027 6.5427 10.2262 6.54854 10.2488C6.55439 10.2713 6.5647 10.2925 6.57886 10.311C6.59302 10.3295 6.61075 10.345 6.631 10.3565L9.91522 12.2281C9.94153 12.2431 9.9713 12.251 10.0016 12.251C10.0319 12.251 10.0616 12.2431 10.088 12.2281L13.3684 10.3585C13.3887 10.347 13.4064 10.3315 13.4206 10.313C13.4347 10.2945 13.445 10.2734 13.4509 10.2508C13.4568 10.2283 13.458 10.2048 13.4547 10.1817C13.4513 10.1586 13.4433 10.1365 13.4313 10.1166L10.0015 4.45337Z" fill="#192D7B"/>
<path d="M14.1536 11.4919L10.3421 17.0729C10.1808 17.309 9.83158 17.3063 9.674 17.0676L6.00154 11.5054C5.82869 11.2436 6.14513 10.936 6.40189 11.1162L9.77689 13.4847C9.84372 13.5316 9.92324 13.5571 10.0049 13.5577C10.0865 13.5584 10.1664 13.5342 10.234 13.4883L13.7594 11.0964C14.019 10.9203 14.3305 11.2328 14.1536 11.4919Z" fill="#192D7B"/>
<path d="M17.3333 10C17.3333 14.0435 14.0436 17.3332 10.0001 17.3332C9.64359 17.3332 9.29309 17.3075 8.9502 17.2584C12.4979 16.7473 15.2331 13.6869 15.2331 10C15.2331 6.3131 12.4979 3.25275 8.9502 2.74165C9.29795 2.69182 9.64881 2.66681 10.0001 2.66681C14.0436 2.66681 17.3333 5.95654 17.3333 10Z" fill="#192D7B"/>
<path d="M13.3432 9.53568L10.0999 11.3841C10.0695 11.4014 10.0352 11.4105 10.0002 11.4105C9.96529 11.4105 9.93095 11.4014 9.9006 11.3841L6.65724 9.53568C6.63389 9.52238 6.61345 9.50453 6.59711 9.4832C6.58077 9.46186 6.56888 9.43747 6.56212 9.41146C6.55537 9.38545 6.55389 9.35836 6.55778 9.33177C6.56167 9.30518 6.57085 9.27964 6.58478 9.25666L9.82814 3.90111C9.90646 3.77181 10.094 3.77181 10.1724 3.90111L13.4157 9.25666C13.4296 9.27964 13.4388 9.30518 13.4427 9.33177C13.4466 9.35836 13.4451 9.38546 13.4384 9.41147C13.4316 9.43748 13.4197 9.46187 13.4034 9.4832C13.387 9.50454 13.3666 9.52238 13.3432 9.53568Z" fill="#27E19D"/>
<path d="M10.4026 4.28126V8.27763L10.0899 8.12149C10.062 8.1076 10.0313 8.10037 10.0002 8.10037C9.96901 8.10037 9.93829 8.1076 9.91041 8.12149L6.85084 9.64583L6.65729 9.53556C6.63393 9.52229 6.61347 9.50447 6.59712 9.48315C6.58077 9.46183 6.56886 9.43744 6.56211 9.41144C6.55536 9.38543 6.55389 9.35834 6.5578 9.33176C6.56171 9.30517 6.57091 9.27965 6.58487 9.25669L9.82791 3.90095C9.86737 3.83657 9.93373 3.80396 10.0001 3.80396C10.0665 3.80396 10.133 3.83657 10.1724 3.90095L10.4026 4.28126Z" fill="#27E19D"/>
<path d="M13.3429 9.53562L13.1461 9.64788L10.0897 8.12152C10.0618 8.10768 10.0311 8.10051 10 8.10058V3.80402C10.0664 3.80402 10.1328 3.83663 10.1722 3.90101L13.4153 9.25675C13.4292 9.27971 13.4385 9.30523 13.4424 9.33182C13.4463 9.3584 13.4448 9.3855 13.4381 9.41151C13.4313 9.43751 13.4194 9.4619 13.403 9.48322C13.3867 9.50454 13.3662 9.52236 13.3429 9.53562Z" fill="#26D192"/>
<path d="M13.3429 9.53562L13.1461 9.64788L12.5968 9.37343L10 5.09136V3.80402C10.0664 3.80402 10.1328 3.83663 10.1722 3.90101L13.4153 9.25675C13.4292 9.27971 13.4385 9.30523 13.4424 9.33182C13.4463 9.3584 13.4448 9.3855 13.4381 9.41151C13.4313 9.43751 13.4194 9.4619 13.403 9.48322C13.3867 9.50454 13.3662 9.52236 13.3429 9.53562Z" fill="#1EC186"/>
<path d="M10.4027 7.87522V11.2112L10.1001 11.3839C10.0697 11.4013 10.0353 11.4105 10.0003 11.4105C9.96526 11.4105 9.93085 11.4013 9.90047 11.3839L6.65742 9.53561C6.6307 9.52054 6.6078 9.49954 6.59049 9.47421C6.57319 9.44889 6.56194 9.41992 6.55762 9.38955L9.91055 7.71912C9.93842 7.70523 9.96915 7.698 10.0003 7.698C10.0314 7.698 10.0622 7.70523 10.09 7.71912L10.4027 7.87522Z" fill="#72F4C3"/>
<path d="M13.4423 9.39314C13.4374 9.4228 13.4259 9.451 13.4087 9.47565C13.3915 9.5003 13.369 9.52079 13.3429 9.5356L10.0998 11.3839C10.0694 11.4013 10.035 11.4105 10 11.4104V7.69818C10.0311 7.69811 10.0618 7.70528 10.0897 7.71912L13.4423 9.39314Z" fill="#23F1A8"/>
<path d="M13.4423 9.39318C13.4374 9.42284 13.4259 9.45103 13.4087 9.47569C13.3915 9.50034 13.369 9.52082 13.3428 9.53564L10.0998 11.3839C10.0694 11.4013 10.035 11.4105 9.99999 11.4105V10.7231L12.1323 9.50799C12.1882 9.47611 12.1859 9.39482 12.1284 9.36607L9.99999 8.30303V7.69818C10.0311 7.69811 10.0618 7.70528 10.0897 7.71912L13.4423 9.39318ZM10.4024 12.5244V15.7348L10.0684 16.2728C10.037 16.3235 9.96296 16.3235 9.93156 16.2728L6.6523 10.996C6.60804 10.9251 6.68851 10.8418 6.76093 10.8841L9.95972 12.7332C9.972 12.7401 9.98586 12.7438 9.99996 12.7438C10.0141 12.7438 10.0279 12.7401 10.0402 12.7332L10.4024 12.5244Z" fill="#27E19D"/>
<path d="M13.3396 11.0041L10.0684 16.2729C10.0612 16.2846 10.0512 16.2942 10.0392 16.3008C10.0272 16.3074 10.0137 16.3108 10 16.3107V12.7437C10.0137 12.7437 10.0278 12.7405 10.0402 12.7332L13.231 10.8918C13.3034 10.8499 13.3835 10.9328 13.3396 11.0041Z" fill="#26D192"/>
<path d="M13.3396 11.004L10.0684 16.2728C10.0612 16.2845 10.0512 16.2941 10.0392 16.3008C10.0272 16.3074 10.0137 16.3108 10 16.3107V15.0998L12.2672 11.4483L12.27 11.4462L13.231 10.8917C13.3034 10.8499 13.3835 10.9328 13.3396 11.004Z" fill="#1EC186"/>
</g>
<defs>
<clipPath id="clip0_209_1468">
<rect width="20" height="20" fill="white"/>
</clipPath>
</defs>
</svg>
