<svg width="20" height="20" viewBox="0 0 20 20" fill="none" xmlns="http://www.w3.org/2000/svg">
<g clip-path="url(#clip0_209_1459)">
<path d="M10 20C15.5228 20 20 15.5228 20 10C20 4.47715 15.5228 0 10 0C4.47715 0 0 4.47715 0 10C0 15.5228 4.47715 20 10 20Z" fill="url(#paint0_linear_209_1459)"/>
<path d="M6.91997 11.886C6.94712 11.8578 6.97976 11.8354 7.01587 11.8203C7.05199 11.8051 7.09082 11.7976 7.12997 11.798H14.43C14.4503 11.799 14.4702 11.804 14.4886 11.8128C14.5069 11.8216 14.5234 11.8339 14.537 11.849C14.5505 11.8642 14.561 11.8819 14.5677 11.9011C14.5744 11.9203 14.5772 11.9407 14.576 11.961C14.5743 11.9981 14.5598 12.0334 14.535 12.061L13.093 13.5C13.0373 13.5558 12.9618 13.5874 12.883 13.588H5.58297C5.55115 13.5906 5.51934 13.5829 5.49222 13.566C5.4651 13.5492 5.44411 13.5241 5.43235 13.4944C5.42059 13.4647 5.41868 13.432 5.42689 13.4012C5.4351 13.3703 5.45301 13.3429 5.47797 13.323L6.91997 11.886Z" fill="url(#paint1_linear_209_1459)"/>
<path d="M6.91974 6.50001C6.9753 6.44385 7.05076 6.41187 7.12974 6.41101H14.4297C14.4591 6.41142 14.4877 6.42044 14.512 6.43695C14.5363 6.45346 14.5552 6.47673 14.5663 6.50388C14.5775 6.53103 14.5805 6.56087 14.5749 6.58969C14.5693 6.61851 14.5553 6.64505 14.5347 6.66601L13.0927 8.11401C13.037 8.1698 12.9616 8.20141 12.8827 8.20201H5.58274C5.54179 8.19969 5.50343 8.18123 5.47607 8.15068C5.4487 8.12012 5.43456 8.07997 5.43674 8.03901C5.4384 8.00193 5.45289 7.96658 5.47774 7.93901L6.91974 6.50001Z" fill="url(#paint2_linear_209_1459)"/>
<path d="M13.0927 9.17598C13.0655 9.14781 13.0329 9.12541 12.9968 9.11012C12.9607 9.09483 12.9219 9.08696 12.8827 9.08698H5.58274C5.54179 9.0893 5.50343 9.10776 5.47607 9.13831C5.4487 9.16886 5.43456 9.20902 5.43674 9.24997C5.43823 9.28709 5.45275 9.3225 5.47774 9.34997L6.91974 10.785C6.94698 10.8131 6.97962 10.8355 7.01569 10.8508C7.05177 10.8661 7.09056 10.874 7.12974 10.874H14.4297C14.4591 10.8736 14.4877 10.8645 14.512 10.848C14.5363 10.8315 14.5552 10.8083 14.5663 10.7811C14.5775 10.754 14.5805 10.7241 14.5749 10.6953C14.5693 10.6665 14.5553 10.6399 14.5347 10.619L13.0927 9.17598Z" fill="url(#paint3_linear_209_1459)"/>
</g>
<defs>
<linearGradient id="paint0_linear_209_1459" x1="10" y1="20" x2="10" y2="0" gradientUnits="userSpaceOnUse">
<stop stop-color="#170E2B"/>
<stop offset="1" stop-color="#210066"/>
</linearGradient>
<linearGradient id="paint1_linear_209_1459" x1="13.73" y1="5.54999" x2="8.67497" y2="15.23" gradientUnits="userSpaceOnUse">
<stop stop-color="#00FFA3"/>
<stop offset="1" stop-color="#DC1FFF"/>
</linearGradient>
<linearGradient id="paint2_linear_209_1459" x1="11.5237" y1="4.39701" x2="6.47374" y2="14.078" gradientUnits="userSpaceOnUse">
<stop stop-color="#00FFA3"/>
<stop offset="1" stop-color="#DC1FFF"/>
</linearGradient>
<linearGradient id="paint3_linear_209_1459" x1="12.6237" y1="4.97198" x2="7.56775" y2="14.652" gradientUnits="userSpaceOnUse">
<stop stop-color="#00FFA3"/>
<stop offset="1" stop-color="#DC1FFF"/>
</linearGradient>
<clipPath id="clip0_209_1459">
<rect width="20" height="20" fill="white"/>
</clipPath>
</defs>
</svg>
